<svg xmlns="http://www.w3.org/2000/svg" width="64" height="64" fill="none" viewBox="0 0 64 64">
  <style>
    :root { --icon-fg: #0F1115; }
    :root { --icon-bg: #FFFFFF; }
    @media (prefers-color-scheme: dark) {
      :root { --icon-fg: #FFFFFF; }
      :root { --icon-bg: #0F1115; }
    }
  </style>
  <rect width="64" height="64" rx="18" fill="var(--icon-bg)" />
  <g transform="translate(5 5) scale(0.84)">
    <path
      stroke="var(--icon-fg)"
      stroke-linecap="round"
      stroke-linejoin="round"
      stroke-width="3.2"
      d="M32 12a20 20 0 1 1 0 40 20 20 0 0 1-9.2-2.2L15 53l2.3-8A19.8 19.8 0 0 1 12 32a20 20 0 0 1 20-20Z"
    />
    <path fill="var(--icon-fg)" d="M18.7 46.2 15 53l7.2-2.8c-1.4-.2-2.6-.9-3.5-2.1Z" />
    <circle cx="39.6" cy="24.7" r="3.6" fill="#4B58F5" />
    <path
      stroke="#4B58F5"
      stroke-linecap="round"
      stroke-width="2"
      d="M39.4 37.9c1.1 1.2 2.2 1.9 3.4 1.9.9 0 1.9-.3 2.7-.8"
    />
  </g>
</svg>
