<svg xmlns="http://www.w3.org/2000/svg" width="256" height="256" fill="none" viewBox="0 0 256 256">
  <style>
    :root { --icon-fg: #0F1115; }
    @media (prefers-color-scheme: dark) {
      :root { --icon-fg: #FFFFFF; }
    }
  </style>
  <path
    stroke="var(--icon-fg)"
    stroke-linecap="round"
    stroke-linejoin="round"
    stroke-width="12"
    d="M128 52a76 76 0 1 1 0 152 76 76 0 0 1-35-8.5L62 206l8.8-29.7A75.7 75.7 0 0 1 52 128a76 76 0 0 1 76-76Z"
  />
  <path
    fill="var(--icon-fg)"
    d="M76 180c-4.7 8.8-9.4 17.6-14 26.4L89 196c-5.2-1-9.7-3.2-13-6Z"
  />
  <circle cx="157" cy="100" r="12" fill="#4B58F5" />
  <path
    stroke="#4B58F5"
    stroke-linecap="round"
    stroke-width="8"
    d="M157 150c4.4 4.8 9 7.2 13.9 7.2 2.2 0 4.4-.5 6.5-1.5"
  />
</svg>
